<svg width="200" height="200" viewBox="0 0 200 200" fill="none" xmlns="http://www.w3.org/2000/svg">
<circle opacity="0.1" cx="100" cy="100" r="100" fill="#2ECC71"/>
<path d="M185 100C185 122.543 176.045 144.163 160.104 160.104C144.163 176.045 122.543 185 100 185C77.4566 185 55.8365 176.045 39.8959 160.104C23.9553 144.163 15 122.543 15 100C15 77.4566 23.9553 55.8365 39.8959 39.8959C55.8365 23.9553 77.4566 15 100 15C122.543 15 144.163 23.9553 160.104 39.8959C176.045 55.8365 185 77.4566 185 100V100ZM142.819 67.8062C142.06 67.0499 141.156 66.4545 140.162 66.0554C139.167 65.6564 138.103 65.4619 137.032 65.4838C135.96 65.5056 134.905 65.7432 133.927 66.1824C132.95 66.6216 132.071 67.2534 131.344 68.04L94.4431 115.056L72.205 92.8069C70.6944 91.3993 68.6964 90.633 66.6319 90.6694C64.5675 90.7058 62.5978 91.5421 61.1378 93.0021C59.6778 94.4622 58.8414 96.4319 58.805 98.4963C58.7686 100.561 59.5349 102.559 60.9425 104.069L89.0562 132.194C89.8136 132.95 90.7155 133.545 91.7081 133.945C92.7007 134.345 93.7636 134.541 94.8335 134.521C95.9035 134.501 96.9584 134.266 97.9355 133.83C98.9126 133.394 99.7918 132.765 100.521 131.981L142.936 78.9625C144.382 77.459 145.18 75.4485 145.161 73.3627C145.141 71.2768 144.304 69.2819 142.829 67.8062H142.819Z" fill="#2ECC71"/>
</svg>
