<svg width="100" height="100" viewBox="0 0 100 100" fill="none" xmlns="http://www.w3.org/2000/svg">
<path d="M50 0C46.6848 0 43.5054 1.31696 41.1612 3.66116C38.817 6.00536 37.5 9.18478 37.5 12.5V87.4999C37.5 90.8151 38.817 93.9945 41.1612 96.3387C43.5054 98.6829 46.6848 99.9999 50 99.9999C53.3152 99.9999 56.4946 98.6829 58.8388 96.3387C61.183 93.9945 62.5 90.8151 62.5 87.4999V12.5C62.5 9.18478 61.183 6.00536 58.8388 3.66116C56.4946 1.31696 53.3152 0 50 0Z" fill="#4C982A"/>
<path d="M12.5 50C9.18479 50 6.00537 51.3169 3.66116 53.6611C1.31696 56.0053 0 59.1847 0 62.4999V87.4999C0 90.8151 1.31696 93.9945 3.66116 96.3387C6.00537 98.6829 9.18479 99.9999 12.5 99.9999C15.8152 99.9999 18.9946 98.6829 21.3388 96.3387C23.683 93.9945 25 90.8151 25 87.4999V62.4999C25 59.1847 23.683 56.0053 21.3388 53.6611C18.9946 51.3169 15.8152 50 12.5 50Z" fill="#4C982A"/>
<path d="M87.5 25C84.1848 25 81.0054 26.3169 78.6612 28.6611C76.317 31.0053 75 34.1848 75 37.5V87.4999C75 90.8151 76.317 93.9945 78.6612 96.3387C81.0054 98.6829 84.1848 99.9999 87.5 99.9999C90.8152 99.9999 93.9946 98.6829 96.3388 96.3387C98.683 93.9945 100 90.8151 100 87.4999V37.5C100 34.1848 98.683 31.0053 96.3388 28.6611C93.9946 26.3169 90.8152 25 87.5 25Z" fill="#4C982A"/>
</svg>
