<svg width="100" height="100" viewBox="0 0 100 100" fill="none" xmlns="http://www.w3.org/2000/svg">
<path d="M85 0H15C6.71875 0 0 4.19922 0 9.375V90.625C0 95.8008 6.71875 100 15 100H85C93.2812 100 100 95.8008 100 90.625V9.375C100 4.19922 93.2812 0 85 0ZM50 93.75C44.4688 93.75 40 90.957 40 87.5C40 84.043 44.4688 81.25 50 81.25C55.5312 81.25 60 84.043 60 87.5C60 90.957 55.5312 93.75 50 93.75ZM85 72.6562C85 73.9453 83.3125 75 81.25 75H18.75C16.6875 75 15 73.9453 15 72.6562V11.7188C15 10.4297 16.6875 9.375 18.75 9.375H81.25C83.3125 9.375 85 10.4297 85 11.7188V72.6562Z" fill="#4C982A"/>
</svg>
