<svg width="100" height="100" viewBox="0 0 100 100" fill="none" xmlns="http://www.w3.org/2000/svg">
<path d="M45.8333 8.33334L76.2417 17.8333C77.0898 18.0981 77.831 18.627 78.3572 19.3429C78.8834 20.0587 79.1671 20.9241 79.1667 21.8125V29.1667H87.5C88.6051 29.1667 89.6649 29.6057 90.4463 30.3871C91.2277 31.1685 91.6667 32.2283 91.6667 33.3333V41.6667H37.5V33.3333C37.5 32.2283 37.939 31.1685 38.7204 30.3871C39.5018 29.6057 40.5616 29.1667 41.6667 29.1667H70.8333V24.875L45.8333 17.0583L20.8333 24.875V55.725C20.8327 58.276 21.4177 60.793 22.5432 63.0822C23.6687 65.3715 25.3046 67.3718 27.325 68.9292L28.1125 69.4959L45.8333 81.5834L61.5917 70.8333H41.6667C40.5616 70.8333 39.5018 70.3944 38.7204 69.613C37.939 68.8316 37.5 67.7718 37.5 66.6667V50H91.6667V66.6667C91.6667 67.7718 91.2277 68.8316 90.4463 69.613C89.6649 70.3944 88.6051 70.8333 87.5 70.8333L74.0833 70.8375C72.4708 72.9625 70.5125 74.8375 68.25 76.3792L45.8333 91.6667L23.4167 76.3834C20.0522 74.0894 17.299 71.0083 15.3964 67.408C13.4939 63.8077 12.4996 59.7971 12.5 55.725V21.8125C12.5005 20.9248 12.7845 20.0604 13.3107 19.3454C13.8368 18.6303 14.5776 18.1021 15.425 17.8375L45.8333 8.33334Z" fill="#4C982A"/>
</svg>
