<svg width="17" height="17" viewBox="0 0 17 17" fill="none" xmlns="http://www.w3.org/2000/svg">
<path d="M15.5833 0H1.41667C0.634595 0.000968426 0.000968426 0.634595 0 1.41667V15.5833C0.000968426 16.3654 0.634595 16.999 1.41667 17H15.5833C16.3654 16.999 16.999 16.3654 17 15.5833V1.41667C16.999 0.634595 16.3654 0.000968426 15.5833 0ZM16.4333 15.5833C16.4333 16.0527 16.0527 16.4333 15.5833 16.4333H1.41667C0.947257 16.4333 0.566667 16.0527 0.566667 15.5833V1.41667C0.566667 0.947257 0.947257 0.566667 1.41667 0.566667H15.5833C16.0527 0.566667 16.4333 0.947257 16.4333 1.41667V15.5833Z" fill="#CCCCCC" fill-opacity="0.56"/>
<path d="M4.81686 6.23328H1.98353C1.82706 6.23328 1.7002 6.36015 1.7002 6.51662V15.0166C1.7002 15.1731 1.82706 15.2999 1.98353 15.2999H4.81686C4.97333 15.2999 5.1002 15.1731 5.1002 15.0166V6.51662C5.1002 6.36015 4.97333 6.23328 4.81686 6.23328ZM4.53353 14.7333H2.26686V6.79995H4.53353V14.7333Z" fill="#CCCCCC" fill-opacity="0.56"/>
<path d="M9.91647 1.70001H7.08314C6.92667 1.70001 6.7998 1.82688 6.7998 1.98335V15.0167C6.7998 15.1731 6.92667 15.3 7.08314 15.3H9.91647C10.0729 15.3 10.1998 15.1731 10.1998 15.0167V1.98335C10.1998 1.82688 10.0729 1.70001 9.91647 1.70001ZM9.63314 14.7333H7.36647V2.26668H9.63314V14.7333Z" fill="#CCCCCC" fill-opacity="0.56"/>
<path d="M15.0171 9.06669H12.1837C12.0273 9.06669 11.9004 9.19355 11.9004 9.35002V15.0167C11.9004 15.1732 12.0273 15.3 12.1837 15.3H15.0171C15.1735 15.3 15.3004 15.1732 15.3004 15.0167V9.35002C15.3004 9.19355 15.1735 9.06669 15.0171 9.06669ZM14.7337 14.7334H12.4671V9.63335H14.7337V14.7334Z" fill="#CCCCCC" fill-opacity="0.56"/>
</svg>
