<svg width="100" height="100" viewBox="0 0 100 100" fill="none" xmlns="http://www.w3.org/2000/svg">
<path d="M83.3333 55.003H79.5555L68.4444 65.0023H79.0555L88.8889 75.0017H11.1111L21 65.0023H32.3889L21.2778 55.003H16.6667L0 70.002V90.0007C0 92.6527 1.17063 95.196 3.25437 97.0713C5.33811 98.9465 8.16426 100 11.1111 100H88.8889C91.8357 100 94.6619 98.9465 96.7456 97.0713C98.8294 95.196 100 92.6527 100 90.0007V70.002L83.3333 55.003ZM77.7778 29.7547L50.2778 54.503L30.5556 36.8042L58.1111 12.0559L77.7778 29.7547ZM54.2222 1.45661L18.8333 33.3045C18.3183 33.767 17.9097 34.3164 17.6309 34.9212C17.3521 35.5261 17.2086 36.1744 17.2086 36.8292C17.2086 37.484 17.3521 38.1324 17.6309 38.7372C17.9097 39.3421 18.3183 39.8915 18.8333 40.354L46.3333 65.0023C48.5 67.0522 52 67.0522 54.1667 65.0023L89.5 33.3045C90.015 32.8419 90.4236 32.2925 90.7024 31.6877C90.9812 31.0829 91.1247 30.4345 91.1247 29.7797C91.1247 29.1249 90.9812 28.4765 90.7024 27.8717C90.4236 27.2669 90.015 26.7175 89.5 26.2549L62 1.50661C61.4988 1.03465 60.8973 0.658106 60.2313 0.399322C59.5653 0.140538 58.8483 0.00478747 58.1229 0.00012436C57.3974 -0.00453875 56.6784 0.121981 56.0083 0.372177C55.3383 0.622372 54.7309 0.991145 54.2222 1.45661Z" fill="#4C982A"/>
</svg>
