<svg width="94" height="33" viewBox="0 0 94 33" fill="none" xmlns="http://www.w3.org/2000/svg">
<path d="M42.6079 30.224C40.4959 30.224 38.5546 29.7333 36.7839 28.752C35.0346 27.7707 33.6372 26.4053 32.5919 24.656C31.5679 22.8853 31.0559 20.9013 31.0559 18.704C31.0559 16.5067 31.5679 14.5333 32.5919 12.784C33.6372 11.0347 35.0346 9.66934 36.7839 8.688C38.5546 7.70667 40.4959 7.216 42.6079 7.216C44.7199 7.216 46.6506 7.70667 48.3999 8.688C50.1706 9.66934 51.5572 11.0347 52.5599 12.784C53.5839 14.5333 54.0959 16.5067 54.0959 18.704C54.0959 20.9013 53.5839 22.8853 52.5599 24.656C51.5359 26.4053 50.1492 27.7707 48.3999 28.752C46.6506 29.7333 44.7199 30.224 42.6079 30.224ZM42.6079 25.232C44.3999 25.232 45.8292 24.6347 46.8959 23.44C47.9839 22.2453 48.5279 20.6667 48.5279 18.704C48.5279 16.72 47.9839 15.1413 46.8959 13.968C45.8292 12.7733 44.3999 12.176 42.6079 12.176C40.7946 12.176 39.3439 12.7627 38.2559 13.936C37.1892 15.1093 36.6559 16.6987 36.6559 18.704C36.6559 20.688 37.1892 22.2773 38.2559 23.472C39.3439 24.6453 40.7946 25.232 42.6079 25.232Z" fill="#4A4A4A"/>
<path d="M73.3002 7.536V11.92H67.3482V30H61.8762V11.92H55.9242V7.536H73.3002Z" fill="#4A4A4A"/>
<path d="M87.5024 30L82.8304 21.52H81.5184V30H76.0464V7.536H85.2304C87.0011 7.536 88.5051 7.84534 89.7424 8.464C91.0011 9.08267 91.9397 9.936 92.5584 11.024C93.1771 12.0907 93.4864 13.2853 93.4864 14.608C93.4864 16.1013 93.0597 17.4347 92.2064 18.608C91.3744 19.7813 90.1371 20.6133 88.4944 21.104L93.6784 30H87.5024ZM81.5184 17.648H84.9104C85.9131 17.648 86.6597 17.4027 87.1504 16.912C87.6624 16.4213 87.9184 15.728 87.9184 14.832C87.9184 13.9787 87.6624 13.3067 87.1504 12.816C86.6597 12.3253 85.9131 12.08 84.9104 12.08H81.5184V17.648Z" fill="#4A4A4A"/>
<path d="M3 18.0283L12.1698 27.4528L30 3" stroke="#05911D" stroke-width="7"/>
</svg>
